# xmcd
#
# Track frame offsets: 
#        150
#        21520
#        34369
#        52167
#        71889
#        85095
#        105549
#        120904
#        138865
#        159478
#        172764
#        189377
#
# Disc length: 2733 seconds
#
# Revision: 3
# Processed by: cddbd v1.5.2PL0 Copyright (c) Steve Scherf et al.
# Submitted via: ExactAudioCopy v1.0b3
#
DISCID=9c0aab0c
DTITLE=Willie Nelson - American Classic
DYEAR=2009
DGENRE=Blues
TTITLE0=The Nearness Of You
TTITLE1=Fly Me To The Moon
TTITLE2=Come Rain Or Shine
TTITLE3=Willie Nelson featuring Diana Krall - If I Had You
TTITLE4=Ain't Misbehavin'
TTITLE5=I Miss You So
TTITLE6=Because Of You
TTITLE7=Willie Nelson featuring Norah Jones - Baby It's Cold Outside
TTITLE8=Angel Eyes
TTITLE9=On The Street Where You Live
TTITLE10=Since I Fell For You
TTITLE11=Always On My Mind
EXTD=YEAR: 2009
EXTT0=
EXTT1=
EXTT2=
EXTT3=
EXTT4=
EXTT5=
EXTT6=
EXTT7=
EXTT8=
EXTT9=
EXTT10=
EXTT11=
PLAYORDER=
